:SAMPLES-PER-SECOND 30
:FULLY-SPECIFIED
:DEGREES
628
root  -15.7763 39.2011 0.594932 25.2656 -88.2461 -34.3728
RightUpLeg  2.7076 -7.44466 2.03584
RightLeg  19.1716 5.27119 1.55578
RightFoot  -13.0747 -0.165104 -5.05668
RightToes  -1.33073e-015 0 -3.6325e-017
Spine  4.99672 -1.15313 7.47179
Spine1  8.86759 -0.0942769 -0.231648
HEad  -13.1234 1.76227 -2.18255
LeftShoulder1  0.370951 2.36236 -26.3044
LeftArm  -9.85259 3.21699 -36.2554
LeftForeArm  67.3437 -79.1066 -83.5776
LeftHand  0.0225482 3.41039 -2.53178
RightShoulder  -0.268215 -4.35147 24.3809
RightArm  -11.1584 -12.9736 34.2764
RightForeArm  100.729 75.808 127.84
RightHand  -0.130915 0.580597 -2.62038
LeftUpLeg  -17.4619 -1.84289 2.88998
LeftLeg  41.9254 -4.59862 -4.05347
LeftFoot  -1.8462 0.292765 -3.38522
LeftToes  -1.03319e-009 7.52634e-011 -3.26162e-012
629
root  -16.8762 39.2784 0.555244 47.9714 -88.9446 -57.1355
RightUpLeg  5.45526 -7.52671 1.75911
RightLeg  17.5089 6.16301 1.5591
RightFoot  -13.7339 -0.205391 -5.39557
RightToes  -1.33073e-015 0 -3.6325e-017
Spine  4.84003 -0.725872 7.19095
Spine1  8.95432 0.235082 -0.638393
HEad  -13.1457 1.85753 -1.77323
LeftShoulder1  0.389753 2.29758 -26.1108
LeftArm  -10.3536 3.26443 -36.4162
LeftForeArm  67.6862 -79.1135 -83.9235
LeftHand  0.0103177 3.45133 -1.80769
RightShoulder  -0.290059 -4.41622 24.5717
RightArm  -10.9848 -12.365 34.475
RightForeArm  100.288 76.0078 126.883
RightHand  -0.130084 0.656764 -2.57299
LeftUpLeg  -16.8752 -0.888208 3.10205
LeftLeg  30.7187 -5.03211 -2.89816
LeftFoot  -0.912905 0.342192 -3.69034
LeftToes  -1.03319e-009 7.52634e-011 -3.26162e-012
630
root  -17.9598 39.3735 0.509098 83.4883 -89.4259 -92.3126
RightUpLeg  8.06106 -7.51205 1.32796
RightLeg  15.171 6.91676 1.50811
RightFoot  -14.0704 -0.227348 -5.55419
RightToes  -1.33073e-015 0 -3.6325e-017
Spine  4.16594 -0.336953 6.34116
Spine1  9.37383 0.445594 -0.973216
HEad  -13.2403 1.88614 -2.01854
LeftShoulder1  0.378254 2.32388 -25.8514
LeftArm  -10.7678 3.33336 -36.585
LeftForeArm  67.9681 -79.1204 -84.1356
LeftHand  0.0248978 2.99342 -2.06632
RightShoulder  -0.332534 -4.54167 24.9381
RightArm  -10.9073 -11.7683 34.5571
RightForeArm  99.504 76.0461 126.54
RightHand  -0.166893 0.488908 -3.35758
LeftUpLeg  -15.8377 0.359983 2.94892
LeftLeg  18.1353 -5.81219 -1.68431
LeftFoot  -0.710532 0.380086 -4.04981
LeftToes  -1.03319e-009 7.52634e-011 -3.26162e-012
631
root  -19.0861 39.3783 0.49864 101.648 -89.4073 -110.358
RightUpLeg  10.8782 -7.58914 0.924576
RightLeg  13.0858 7.31717 1.39268
RightFoot  -14.7967 -0.263671 -5.42393
RightToes  -1.33073e-015 0 -3.6325e-017
Spine  3.75684 -0.222955 5.03387
Spine1  9.6027 0.215327 -0.374193
HEad  -13.2102 2.28708 -1.92443
LeftShoulder1  0.348557 2.42978 -26.2574
LeftArm  -10.8523 3.41395 -36.1586
LeftForeArm  69.4941 -79.1464 -85.6628
LeftHand  0.00915302 3.61008 -2.00673
RightShoulder  -0.252351 -4.30256 24.2824
RightArm  -10.9988 -11.6907 35.1985
RightForeArm  99.3743 76.1512 126.037
RightHand  -0.129098 0.0474258 -2.78458
LeftUpLeg  -14.4041 1.95895 2.4494
LeftLeg  6.47912 -6.67329 -0.389867
LeftFoot  -0.613693 0.453234 -4.77624
LeftToes  -1.03319e-009 7.52634e-011 -3.26162e-012
632
root  -20.2349 39.2647 0.469642 131.879 -88.9193 -140.899
RightUpLeg  13.6277 -7.34476 0.992495
RightLeg  12.1265 7.58941 1.13314
RightFoot  -16.0728 -0.326154 -5.25729
RightToes  -1.33073e-015 0 -3.6325e-017
Spine  4.03881 0.0130577 3.8737
Spine1  9.66361 0.185965 0.370532
HEad  -12.1529 1.92437 0.299932
LeftShoulder1  0.316977 2.52856 -26.3093
LeftArm  -11.1149 3.33053 -35.9508
LeftForeArm  69.6494 -79.1311 -86.39
LeftHand  0.00747781 3.71202 -1.88717
RightShoulder  -0.224621 -4.21269 24.2377
RightArm  -10.9135 -11.5455 35.3116
RightForeArm  98.8029 76.1612 125.862
RightHand  -0.130633 0.248831 -2.73236
LeftUpLeg  -13.2016 4.46413 2.54237
LeftLeg  -0.967372 -5.7102 -0.50462
LeftFoot  1.44129 0.708841 -6.3595
LeftToes  -1.03319e-009 7.52634e-011 -3.26162e-012
633
root  -21.5162 38.9931 0.5595 117.538 -89.0479 -126.759
RightUpLeg  15.7567 -7.64446 0.349847
RightLeg  12.8891 7.86748 1.24766
RightFoot  -18.3794 -0.428991 -4.96373
RightToes  -1.33073e-015 0 -3.6325e-017
Spine  3.50459 -0.071368 3.52173
Spine1  10.2496 0.131362 0.180553
HEad  -12.4882 1.77161 -0.362667
LeftShoulder1  0.335747 2.46259 -26.035
LeftArm  -10.774 3.11964 -35.9867
LeftForeArm  69.8082 -79.1391 -86.3441
LeftHand  0.00441699 3.80562 -1.27999
RightShoulder  -0.256561 -4.31194 24.4319
RightArm  -11.0016 -11.9242 35.4638
RightForeArm  99.4801 76.0849 126.36
RightHand  -0.140275 0.187134 -2.95899
LeftUpLeg  -13.3356 4.50826 2.10156
LeftLeg  -1.54495 -2.31769 -1.13726
LeftFoot  2.83302 0.982062 -8.02244
LeftToes  -1.03319e-009 7.52634e-011 -3.26162e-012
634
root  -22.8352 38.69 0.716149 58.2592 -89.4172 -67.2233
RightUpLeg  17.3213 -7.63118 -0.191885
RightLeg  13.9755 7.21607 1.20077
RightFoot  -20.6976 -0.478476 -4.13729
RightToes  -1.33073e-015 0 -3.6325e-017
Spine  2.22175 -0.3607 3.23931
Spine1  11.3112 -0.0787802 -0.257885
HEad  -12.5966 1.56523 -0.763206
LeftShoulder1  0.29626 2.5859 -26.0835
LeftArm  -10.545 2.56634 -35.902
LeftForeArm  68.7399 -79.1301 -85.085
LeftHand  0.00831584 3.59734 -1.84769
RightShoulder  -0.287449 -4.41055 24.4898
RightArm  -10.9924 -12.7076 35.3576
RightForeArm  99.9401 76.0148 126.775
RightHand  -0.136865 0.038869 -2.94939
LeftUpLeg  -14.9546 3.43823 0.706764
LeftLeg  3.43164 -0.148714 -0.684111
LeftFoot  3.32431 0.639915 -5.14697
LeftToes  -1.03319e-009 7.52634e-011 -3.26162e-012
635
root  -24.157 38.469 0.868296 37.1505 -89.7649 -46.3281
RightUpLeg  19.1368 -6.71505 -0.858414
RightLeg  15.3144 6.30631 1.09708
RightFoot  -22.1267 -0.382693 -2.46925
RightToes  -1.33073e-015 0 -3.6325e-017
Spine  1.76459 -0.228214 2.04337
Spine1  11.9364 -0.0200149 -0.1176
HEad  -12.6129 1.1807 -0.830256
LeftShoulder1  0.25725 2.71861 -26.5578
LeftArm  -10.0143 2.52199 -35.7099
LeftForeArm  69.9236 -79.1541 -85.9978
LeftHand  0.0118714 3.33196 -1.98393
RightShoulder  -0.243546 -4.27343 24.2882
RightArm  -11.1075 -13.8212 35.0528
RightForeArm  99.9901 75.9495 127.074
RightHand  -0.136024 0.256633 -2.84456
LeftUpLeg  -16.0341 3.00272 -0.882083
LeftLeg  9.03397 -0.853541 -0.2593
LeftFoot  7.19225 0.00353181 -0.523682
LeftToes  -1.03319e-009 7.52634e-011 -3.26162e-012
